<?xml version="1.0" encoding="UTF-8"?>
<svg width="284px" height="63px" viewBox="0 0 284 63" version="1.1" xmlns="http://www.w3.org/2000/svg" xmlns:xlink="http://www.w3.org/1999/xlink">
    <!-- Generator: Sketch 61.2 (89653) - https://sketch.com -->
    <title>Artboard</title>
    <desc>Created with Sketch.</desc>
    <defs>
        <polygon id="path-1" points="0.551431833 0.0250653333 10.8639318 0.0250653333 10.8639318 10.3375653 0.551431833 10.3375653"></polygon>
    </defs>
    <g id="Artboard" stroke="none" stroke-width="1" fill="none" fill-rule="evenodd">
        <g id="Clipped" transform="translate(152.000000, 22.000000)">
            <mask id="mask-2" fill="white">
                <use xlink:href="#path-1"></use>
            </mask>
            <g id="Path"></g>
            <path d="M10.2587888,5.664714 C10.1835937,5.54296875 10.1513674,5.410482 10.1549479,5.26725283 L10.1549479,5.11328125 C10.1513674,4.96647158 10.1835937,4.83398483 10.2587888,4.71223958 C10.3268229,4.58333333 10.4235028,4.48307292 10.5488277,4.40787783 C10.6598305,4.35416667 10.7708333,4.289714 10.8782557,4.214518 C10.8782557,4.08561175 10.8173826,3.9567055 10.7851562,3.82779925 L10.7350265,3.63444033 C10.7350265,3.57714867 10.6956382,3.51269508 10.6705729,3.45540342 L10.2910152,3.45540342 C9.9651695,3.46614583 9.72526042,3.32649717 9.57486933,3.03645833 L9.57486933,2.97200567 L9.52832008,2.90039017 C9.460286,2.77864583 9.42447917,2.64615908 9.42089867,2.50651042 C9.41731817,2.35970075 9.453125,2.22363258 9.52832008,2.09472633 C9.59277367,1.98730492 9.65364583,1.87630208 9.7109375,1.76529925 L9.445964,1.47167992 L9.14876325,1.2067055 L8.81933617,1.38574242 C8.69401042,1.4609375 8.55436175,1.49674433 8.40755208,1.49674433 C8.26790342,1.48958333 8.13899717,1.4537765 8.01367233,1.38574242 L7.93131533,1.31412783 L7.86686175,1.31412783 C7.59114583,1.16015625 7.45507767,0.927409083 7.46223958,0.612304917 C7.46223958,0.483398667 7.46223958,0.361653417 7.46223958,0.232747167 L7.27246117,0.1682945 L7.07910133,0.118163833 C6.94661458,0.0859375 6.81770833,0.0250653333 6.68880208,0.0250653333 C6.6243485,0.136068167 6.55273483,0.247070083 6.49544317,0.354492417 C6.42382767,0.490559667 6.32356817,0.5944015 6.1910805,0.669596583 C6.06933617,0.744791667 5.933268,0.7805985 5.79003883,0.7734375 L5.63606817,0.7734375 C5.492839,0.7805985 5.36035133,0.744791667 5.238607,0.669596583 C5.10611933,0.5944015 5.00227842,0.490559667 4.93424433,0.354492417 C4.87695267,0.247070083 4.8125,0.139648667 4.74088542,0.0250653333 C4.61197917,0.0250653333 4.48307292,0.0859375 4.35416667,0.118163833 L4.16080683,0.1682945 L3.98177083,0.232747167 C3.98177083,0.361653417 3.98177083,0.483398667 3.98177083,0.612304917 C3.98535133,0.934570083 3.84570267,1.16731817 3.56282575,1.31412783 L3.49837217,1.31412783 L3.42675758,1.36067708 C3.30501325,1.42871117 3.1725265,1.464518 3.03287783,1.47167992 C2.88606817,1.47167992 2.7464195,1.43587217 2.62109375,1.36067708 L2.29166667,1.2067055 L1.99446592,1.47167992 L1.72949242,1.76529925 C1.79036458,1.87630208 1.84765625,1.98730492 1.91210983,2.09472633 C1.98730492,2.22363258 2.02311175,2.35970075 2.01953125,2.50651042 C2.01595075,2.64615908 1.980143,2.77864583 1.91210983,2.90039017 L1.84049433,2.97200567 L1.84049433,3.03645833 C1.69010417,3.31575567 1.4537765,3.44824242 1.13867233,3.4410805 L0.759114583,3.4410805 L0.694661,3.62369792 L0.64095075,3.81705683 C0.6087235,3.945964 0.569336167,4.07486933 0.551431833,4.2037765 C0.662434667,4.27539017 0.7734375,4.33984375 0.880859833,4.39713542 C1.01692708,4.46875 1.1243485,4.57617233 1.195964,4.71223958 C1.27115908,4.83398483 1.30338542,4.96647158 1.29980492,5.11328125 L1.29980492,5.26725283 C1.30338542,5.410482 1.27115908,5.54296875 1.195964,5.664714 C1.12792992,5.79361933 1.03125,5.89388067 0.90592425,5.96907575 L0.551431833,6.16243467 C0.551431833,6.29134092 0.6087235,6.42024717 0.64095075,6.54915342 L0.694661,6.74251325 C0.694661,6.79980492 0.737630667,6.86425758 0.759114583,6.92871117 L1.13867233,6.92871117 C1.4537765,6.92513067 1.69010417,7.06477842 1.84049433,7.34049433 L1.87988258,7.40494792 L1.92285133,7.4765625 C1.99446592,7.59830683 2.03027367,7.7307945 2.03385417,7.87044317 C2.03743467,8.01725283 1.99804733,8.1569015 1.92285133,8.28222633 C1.85839867,8.39322917 1.801107,8.5006515 1.74381533,8.61165342 L2.00878883,8.90885417 L2.30598958,9.17382767 L2.63183617,8.99121117 C2.76074242,8.91601517 2.89680967,8.88020833 3.04720075,8.88378883 C3.1868485,8.88736933 3.31575567,8.92317708 3.4375,8.99121117 L3.50911458,9.03776042 L3.57356817,9.07714867 C3.84570267,9.22395833 3.98177083,9.453125 3.98177083,9.76464867 C3.98177083,9.89355492 3.98177083,10.0152993 3.98177083,10.1442055 L4.16080683,10.2086591 L4.35416667,10.2623693 C4.48307292,10.2623693 4.61197917,10.3339848 4.74088542,10.3518883 C4.8125,10.2444659 4.87695267,10.133464 4.93424433,10.0224612 C5.00944033,9.89713542 5.10970075,9.8004555 5.238607,9.73242233 C5.36035133,9.66080683 5.492839,9.625 5.63606817,9.6285805 L5.79003883,9.6285805 C5.933268,9.625 6.06933617,9.66080683 6.1910805,9.73242233 C6.31998675,9.8004555 6.42024717,9.89713542 6.49544317,10.0224612 C6.55273483,10.133464 6.6243485,10.2408854 6.68880208,10.3518883 C6.81770833,10.3518883 6.94661458,10.2945966 7.07552083,10.2623693 L7.26888067,10.2086591 L7.45507767,10.1442055 C7.45507767,10.0152993 7.45507767,9.89355492 7.45507767,9.76464867 C7.44791667,9.44238258 7.58398483,9.2024735 7.86686175,9.04850283 L7.93131533,9.01269508 L8.00292992,8.96614583 C8.12467425,8.89811175 8.257161,8.86230492 8.39680967,8.855143 C8.54361933,8.855143 8.6796875,8.89095075 8.80859375,8.96614583 L9.13802083,9.14518183 L9.43164017,8.88378883 L9.69661458,8.586589 C9.63932292,8.47558617 9.58203125,8.36816383 9.51757767,8.257161 C9.44238258,8.12825567 9.40657575,7.9921875 9.40657575,7.84537783 C9.41015625,7.70572917 9.4495445,7.57324242 9.51757767,7.45149717 L9.56054733,7.37988258 L9.59993467,7.31542992 C9.75032575,7.046875 9.98307292,6.91080683 10.2910152,6.91080683 L10.6705729,6.91080683 C10.6705729,6.84635417 10.7171222,6.7819015 10.7350265,6.72460983 L10.7851562,6.53125 C10.7851562,6.40234375 10.8567708,6.2734375 10.8782557,6.14453125 L10.5488277,5.95117233 C10.4270833,5.88313825 10.3304034,5.78645833 10.2587888,5.664714 Z M5.70768183,8.72623675 C5.238607,8.72623675 4.78743467,8.63671875 4.35416667,8.45768183 C3.92089867,8.27506533 3.54134092,8.02083333 3.20833333,7.68782575 C2.87890625,7.35481817 2.62109375,6.97167992 2.44205683,6.538411 C2.26302083,6.105143 2.17708333,5.65397158 2.17708333,5.18847633 C2.17708333,4.7194015 2.26660133,4.26822917 2.44563825,3.83496117 C2.62467425,3.40169317 2.87890625,3.01855492 3.21191383,2.68554733 C3.54492233,2.35611933 3.92447917,2.09830683 4.35774717,1.91927083 C4.79101517,1.74023483 5.2421875,1.65071592 5.71126325,1.65071592 C6.180339,1.65071592 6.63151042,1.74023483 7.06477842,1.91927083 C7.49804733,2.09830683 7.88118467,2.35253883 8.21419317,2.68554733 C8.54361933,3.0149735 8.80143183,3.39811175 8.98046875,3.83138067 C9.16308617,4.26106817 9.25260417,4.71223958 9.25260417,5.18131533 C9.25260417,5.65397158 9.16666667,6.105143 8.98763067,6.54199242 C8.80859375,6.97526042 8.55078125,7.35839867 8.21777367,7.69140625 C7.88476517,8.02441383 7.50162783,8.28222633 7.06477842,8.46126325 C6.63151042,8.64029925 6.17675758,8.72981817 5.70768183,8.72623675 Z" id="Shape" fill="#FFFFFF" fill-rule="nonzero" mask="url(#mask-2)"></path>
        </g>
        <path d="M157.494685,30 C157.165131,29.9964558 156.846209,29.9326735 156.537917,29.805108 C156.233169,29.6775425 155.963855,29.4968244 155.729979,29.2629547 C155.496103,29.0290842 155.31538,28.7597792 155.191354,28.4514965 C155.063785,28.1467562 155,27.8278428 155,27.4982979 C155,27.1652106 155.063785,26.8462963 155.191354,26.5415569 C155.318923,26.2332733 155.499646,25.9639683 155.733523,25.7300987 C155.9674,25.4962281 156.236712,25.31551 156.545004,25.1879445 C156.849752,25.0639222 157.168676,25.0001399 157.498229,25.0001399 C157.831325,24.9965967 158.150249,25.060379 158.454997,25.1879445 C158.759745,25.31551 159.032601,25.4926848 159.266478,25.7265545 C159.500355,25.9604251 159.681078,26.2297301 159.808647,26.5380127 C159.936216,26.842753 160,27.1616664 160,27.4912114 C160,27.8242987 159.936216,28.1432129 159.81219,28.4514965 C159.684621,28.7597792 159.503898,29.0290842 159.266478,29.266498 C159.032601,29.5003686 158.759745,29.6810857 158.454997,29.8086513 C158.146704,29.9362168 157.827782,30 157.494685,30 Z M157.494685,25.7123805 C157.257265,25.7123805 157.030475,25.7584465 156.810773,25.8505768 C156.594614,25.942707 156.399717,26.0738166 156.233169,26.2403608 C156.06662,26.4069039 155.939051,26.6017959 155.846917,26.8214917 C155.758328,27.0411883 155.715805,27.2679715 155.715805,27.5053853 C155.715805,27.7427991 155.761871,27.9695823 155.854005,28.189278 C155.946138,28.4054305 156.073707,28.6003225 156.243799,28.7668666 C156.410348,28.9334107 156.605245,29.0609753 156.824947,29.1495632 C157.041106,29.2416934 157.271439,29.2842152 157.50886,29.2842152 C157.742736,29.2842152 157.973069,29.2381501 158.189228,29.146019 C158.40893,29.0538888 158.600283,28.9263233 158.766832,28.7562359 C158.936924,28.5896918 159.064493,28.3948007 159.153084,28.1751041 C159.241673,27.9554074 159.287739,27.7286243 159.287739,27.4912114 C159.284196,27.2573408 159.23813,27.0270144 159.145996,26.8108619 C159.053862,26.5911653 158.926294,26.3998174 158.756202,26.2332733 C158.589653,26.0667292 158.394756,25.9391637 158.178597,25.8470335 C157.958894,25.7584465 157.732105,25.7123805 157.494685,25.7123805 Z" id="Shape" fill="#FFFFFF" fill-rule="nonzero"></path>
        <g id="Group" transform="translate(0.000000, 1.000000)" fill="#FFFFFF" fill-rule="nonzero">
            <g transform="translate(0.548716, 0.111644)" id="Path">
                <g>
                    <polygon points="8.12946429 0.286962366 8.12946429 60.344086 0.522321429 60.344086 0.522321429 0.286962366"></polygon>
                </g>
            </g>
        </g>
        <g id="Group" transform="translate(23.000000, 1.000000)" fill="#FFFFFF" fill-rule="nonzero">
            <g transform="translate(0.652250, 0.111644)" id="Path">
                <g>
                    <polygon points="0.152777778 60.344086 0.152777778 0.286962366 8.04166667 0.286962366 45.4027778 48.6742832 45.4027778 0.286962366 52.875 0.286962366 52.875 60.344086 44.9722222 60.344086 7.61111111 11.5331541 7.61111111 60.344086"></polygon>
                </g>
            </g>
        </g>
        <g id="Group" transform="translate(92.000000, 1.000000)" fill="#FFFFFF" fill-rule="nonzero">
            <g transform="translate(0.317508, 0.111644)" id="Path">
                <g>
                    <polygon points="8.12946429 0.286962366 8.12946429 60.344086 0.522321429 60.344086 0.522321429 0.286962366"></polygon>
                </g>
            </g>
        </g>
        <g id="Group" transform="translate(112.000000, 0.000000)" fill="#FFFFFF" fill-rule="nonzero">
            <g transform="translate(0.412478, 0.112267)" id="Path">
                <g>
                    <path d="M49.1388889,58.537234 C44.2118053,60.3991582 38.9062498,61.3266844 33.2222222,61.3266844 C11.1006942,61.3266844 0.0416666667,50.8387635 0.0416666667,29.8594858 C0.0416666667,10.0104162 10.7152782,0.0824468085 32.0694444,0.0824468085 C38.1875004,0.0824468085 43.878472,0.927527035 49.1388889,2.6108156 L49.1388889,9.3714539 C43.878472,7.40303657 38.4722222,6.41710993 32.9166667,6.41710993 C16.2673609,6.41710993 7.94444444,14.2323805 7.94444444,29.8594858 C7.94444444,46.6167992 16.1388889,54.9920213 32.5277778,54.9920213 C35.1458329,54.9920213 38.0555556,54.6553639 41.25,53.9751773 L41.25,33.445922 L49.1388889,33.445922 L49.1388889,58.537234 Z"></path>
                </g>
            </g>
        </g>
        <g id="Group" transform="translate(174.000000, 1.000000)" fill="#FFFFFF" fill-rule="nonzero">
            <g transform="translate(0.198368, 0.111644)" id="Path">
                <g>
                    <path d="M0.150684932,60.344086 L0.150684932,0.286962366 L25.8356164,0.286962366 C37.2876712,0.286962366 43.0136986,5.09016533 43.0136986,14.6897401 C43.0136986,22.4992155 37.4109589,28.2794583 26.2054795,32.0304659 L46.8767123,60.344086 L36.6027397,60.344086 L17.4520548,33.3422939 L17.4520548,28.2589606 C28.9589041,26.4381163 34.7123288,22.0243618 34.7123288,15.0176971 C34.7123288,9.48000694 31.5102738,6.70945341 25.109589,6.70945341 L7.93150685,6.70945341 L7.93150685,60.344086 L0.150684932,60.344086 Z"></path>
                </g>
            </g>
        </g>
        <g id="Group" transform="translate(223.000000, 1.000000)" fill="#FFFFFF" fill-rule="nonzero">
            <g transform="translate(0.565498, 0.111644)" id="Path">
                <g>
                    <polygon points="8.23991935 60.344086 0.177643369 60.344086 25.6762993 0.286962366 34.2851703 0.286962366 59.90681 60.344086 51.2979391 60.344086 43.5226254 41.4455645 23.6538978 41.4455645 25.7992832 35.1460573 40.9126344 35.1460573 29.7074373 7.92562724"></polygon>
                </g>
            </g>
        </g>
    </g>
</svg>