<?xml version="1.0" encoding="utf-8"?>
<!-- Generator: Adobe Illustrator 22.1.0, SVG Export Plug-In . SVG Version: 6.00 Build 0)  -->
<svg version="1.1" id="Layer_1" xmlns="http://www.w3.org/2000/svg" xmlns:xlink="http://www.w3.org/1999/xlink" x="0px" y="0px"
	 viewBox="0 0 385.3 385.3" style="enable-background:new 0 0 385.3 385.3;" xml:space="preserve">
<style type="text/css">
	.st0{fill:#AC7222;}
	.st1{fill:#FFFFFF;}
</style>
<g>
	<g>
		<path class="st0" d="M373.7,193.1c0,99.8-80.9,180.6-180.7,180.6c-99.8,0-180.6-80.9-180.6-180.6c0-99.8,80.9-180.7,180.6-180.7
			C292.9,12.4,373.7,93.3,373.7,193.1"/>
		<path class="st1" d="M193.1,366.3c-95.5,0-173.2-77.7-173.2-173.2c0-95.5,77.7-173.2,173.2-173.2c95.5,0,173.2,77.7,173.2,173.2
			C366.3,288.6,288.6,366.3,193.1,366.3z M193.1,25C100.4,25,25,100.4,25,193.1c0,92.7,75.4,168.1,168.1,168.1
			c92.7,0,168.1-75.4,168.1-168.1C361.2,100.4,285.8,25,193.1,25z"/>
	</g>
	<g>
		<rect x="92.2" y="244.5" class="st1" width="211.6" height="3.3"/>
		<path class="st1" d="M178,183.9c0,23.8-16.3,42.5-40.2,42.5c-12.7,0-22.8-6-29.5-14.7v13.6H92.2V93h16.1v63
			c6.7-8.6,16.8-14.6,29.5-14.6C161.7,141.4,178,160.1,178,183.9 M161.4,183.9c0-15.2-10.8-27.5-26.3-27.5
			c-15.4,0-26.6,12.9-26.6,27.5c0,14.6,11.2,27.3,26.6,27.3C150.5,211.2,161.4,199,161.4,183.9"/>
		<rect x="189" y="142.6" class="st1" width="16.1" height="82.7"/>
		<path class="st1" d="M216.2,183.9c0-23,17.8-42.7,43.8-42.7c25.9,0,43.8,19.7,43.8,42.7c0,23-17.8,42.7-43.8,42.7
			C234.1,226.6,216.2,206.9,216.2,183.9 M287.1,183.8c0-14.6-10.6-27-27.1-27c-16.1,0-27.3,12.4-27.3,27c0,14.7,11.2,27.3,27.3,27.3
			C276.5,211,287.1,198.5,287.1,183.8"/>
		<path class="st1" d="M199.9,128.2c0,0-1.7,2.4-2.6,4.7c-1.2-1.6-11.5-16.8-8.8-34.2c0,0,0.1,15.2,6.5,26c0,0,8.2-7.3,4.5-15
			c-3.7-7.7-10.5-14.8-8.7-22.9c0,0-22.5,25.5,1.1,39.2c0,0,2.3,5.5,4.9,8.3l0.3-0.6c-0.1,0.2-0.1,0.4-0.2,0.6l1.3,0
			c0,0,4.1-13.5,15.8-19.6c0,0-8.7,6.4-12.1,14.6c0,0,7,1.3,10.4-3.8c3.2-4.7,4-12.2,9.4-14.6C221.8,111.1,197.8,109,199.9,128.2"/>
		<path class="st1" d="M128.8,267v8.5h5.5v4.8h-5.5v21.9h-5.1v-21.9h-3.4v-4.8h3.4v-9.7c0-4.2,2.2-6.6,5.9-6.6
			c1.9,0,3.5,0.6,4.6,1.1v5.1c-1-0.5-2-0.9-3.3-0.9C129.7,264.6,128.8,265.4,128.8,267"/>
		<path class="st1" d="M164.8,275.5v26.7h-5V298c-2.1,2.8-5.2,4.6-9.1,4.6c-7.4,0-12.5-6-12.5-13.7c0-7.7,5.1-13.7,12.5-13.7
			c4,0,7.1,1.9,9.1,4.6v-4.3H164.8z M159.7,288.9c0-4.7-3.5-8.8-8.3-8.8c-4.8,0-8.2,4-8.2,8.8c0,4.9,3.4,8.9,8.2,8.9
			C156.3,297.7,159.7,293.6,159.7,288.9"/>
		<path class="st1" d="M214.7,286.7l-0.1,15.5h-5v-14.7c0-4.8-2.4-7.9-6.2-7.9c-3.8,0-6.2,3.1-6.2,8.1v14.5h-5v-14.7
			c0-4.8-2.5-7.9-6.2-7.9c-3.8,0-6.2,3.1-6.2,8.1l-0.1-0.2v14.7h-5v-26.7h5v3.6c1.5-2.4,4.2-4.2,7.8-4.2c3.5,0,6.7,1.8,8.4,5.4
			c1.7-2.9,4.6-5.4,9-5.4C210.3,275,214.7,278.9,214.7,286.7"/>
		<path class="st1" d="M224,267c0-1.9,1.4-3.4,3.4-3.4c2,0,3.4,1.5,3.4,3.4c0,2-1.4,3.5-3.4,3.5C225.5,270.5,224,269,224,267
			 M224.9,275.5h5v26.7h-5V275.5z"/>
		<rect x="240.7" y="259.5" class="st1" width="5" height="42.7"/>
		<polygon class="st1" points="278.5,275.5 262.8,312.9 257.7,312.9 262.4,302 251.3,275.5 256.7,275.5 264.9,296.4 273,275.5 		"/>
	</g>
</g>
</svg>
