<svg width="405" height="216" viewBox="0 0 405 216" fill="none" xmlns="http://www.w3.org/2000/svg">
<path d="M374 55.9999C385.681 63.4036 394.309 74.4881 397.375 88.1249C399.63 102.749 396.642 115.904 388 128C380.681 137.005 370.181 143.825 358.518 145.318C355.92 145.472 353.352 145.519 350.75 145.5C349.831 145.494 348.912 145.488 347.966 145.483C334.923 145.142 325.377 140.167 316.07 131.125C307.205 121.689 303.149 109.843 303 96.9999C304.114 82.3003 309.037 71.3292 319.812 61.2499C334.578 48.8925 357.158 46.4446 374 55.9999ZM330.188 63.7499C322.189 73.6365 320.611 85.4375 320.688 97.8124C320.693 98.7744 320.699 99.7363 320.705 100.727C320.916 113.191 322.997 124.402 331.699 133.844C338.454 140.037 344.65 141.656 353.715 141.406C361.801 140.406 367.538 136.388 372.535 130.098C379.507 120.114 380.349 109.555 380.312 97.6249C380.329 96.5782 380.345 95.5315 380.361 94.453C380.369 81.9245 377.934 71.0969 369.008 61.9608C362.016 55.5498 356.177 54.3435 346.734 54.6288C339.495 55.3483 335.099 58.5802 330.188 63.7499Z" fill="#AC7222"/>
<path d="M158 55.9999C169.681 63.4036 178.309 74.4881 181.375 88.1249C183.63 102.749 180.642 115.904 172 128C164.681 137.005 154.181 143.825 142.518 145.318C139.92 145.472 137.352 145.519 134.75 145.5C133.831 145.494 132.912 145.488 131.966 145.483C118.923 145.142 109.377 140.167 100.07 131.125C91.2047 121.689 87.1491 109.843 87 96.9999C88.1144 82.3003 93.0366 71.3292 103.812 61.2499C118.578 48.8925 141.158 46.4446 158 55.9999ZM114.188 63.7499C106.189 73.6365 104.611 85.4375 104.688 97.8124C104.693 98.7744 104.699 99.7363 104.705 100.727C104.916 113.191 106.997 124.402 115.699 133.844C122.454 140.037 128.65 141.656 137.715 141.406C145.801 140.406 151.538 136.388 156.535 130.098C163.507 120.114 164.349 109.555 164.312 97.6249C164.329 96.5782 164.345 95.5315 164.361 94.453C164.369 81.9245 161.934 71.0969 153.008 61.9608C146.016 55.5498 140.177 54.3435 130.734 54.6288C123.495 55.3483 119.099 58.5802 114.188 63.7499Z" fill="#AC7222"/>
<path d="M53.9997 55.9999C57.9964 58.5977 61.0694 61.5715 62.9997 65.9999C62.6872 68.3124 62.6872 68.3124 61.9997 69.9999C58.9997 68.9999 58.9997 68.9999 57.3747 66.2499C54.6888 61.9359 50.4915 60.0905 45.9997 57.9999C45.2431 57.6299 44.4864 57.26 43.7068 56.8788C40.1688 55.7301 36.8042 55.6702 33.1247 55.6874C32.4428 55.6713 31.7609 55.6552 31.0583 55.6386C24.973 55.6328 20.1612 56.9523 15.6247 61.2499C13.6055 64.6671 13.0694 67.0305 12.9997 70.9999C14.8195 77.3689 19.5932 79.8002 24.9997 82.9999C30.1164 85.6099 35.3512 87.9616 40.5857 90.3241C50.2968 94.8346 60.5787 99.7512 64.9997 110C67.065 116.196 66.8218 122.844 64.3122 128.875C62.4232 132.606 60.2008 135.267 56.9997 138C56.2572 138.701 55.5147 139.402 54.7497 140.125C48.2029 144.589 41.0263 145.558 33.2497 145.5C32.3801 145.496 31.5105 145.491 30.6145 145.487C20.4721 145.221 11.2373 142.428 3.99974 135C2.06224 132.937 2.06224 132.937 0.999739 131C1.31224 128.75 1.31224 128.75 1.99974 127C4.69166 128.097 6.13178 129.144 8.12474 131.312C16.1676 138.831 25.4211 140.463 36.0232 140.285C41.9982 139.857 45.7599 138.384 49.9372 133.937C52.1582 129.887 52.3795 126.557 51.9997 122C48.9383 113.836 42.0405 110.359 34.466 106.814C30.6477 105.085 26.8261 103.369 22.969 101.727C13.7942 97.7415 5.01067 92.6603 0.999739 82.9999C0.127707 75.0723 0.473441 67.5431 5.4763 61.0976C17.5799 48.0268 39.1454 47.1407 53.9997 55.9999Z" fill="#AC7222"/>
<path d="M201 52C207.27 52 213.54 52 220 52C229.68 74.3275 239.344 96.6622 249 119C254.813 107.585 260.266 96.0376 265.562 84.375C270.514 73.4775 275.553 62.6604 281 52C282.32 52 283.64 52 285 52C283.496 56.8584 281.545 61.3631 279.395 65.957C279.038 66.725 278.682 67.4931 278.315 68.2843C277.549 69.9357 276.781 71.5864 276.013 73.2366C273.971 77.6195 271.939 82.0072 269.906 86.3945C269.494 87.2841 269.081 88.1736 268.656 89.0901C264.061 99.01 259.543 108.965 255.036 118.925C251.087 127.647 247.066 136.332 243 145C242.34 145 241.68 145 241 145C233.963 129.975 227.292 114.818 220.794 99.5537C217.545 91.9234 214.272 84.3053 210.93 76.7148C210.602 75.9706 210.275 75.2264 209.938 74.4596C208.369 70.8959 206.795 67.3344 205.216 63.7754C204.655 62.5053 204.095 61.2351 203.535 59.9648C203.044 58.8575 202.553 57.7501 202.047 56.6091C201 54 201 54 201 52Z" fill="#AC7222"/>
<path d="M1 176C53.47 176 105.94 176 160 176C160 177.32 160 178.64 160 180C107.53 180 55.06 180 1 180C1 178.68 1 177.36 1 176Z" fill="#AC7222"/>
<path d="M317 167C318.32 167 319.64 167 321 167C322.32 169.97 323.64 172.94 325 176C326.943 173.086 328.464 170.142 330 167C331.32 167 332.64 167 334 167C334 172.28 334 177.56 334 183C333.01 183 332.02 183 331 183C330.67 181.02 330.34 179.04 330 177C329.01 178.98 328.02 180.96 327 183C325.125 182.812 325.125 182.812 323 182C321.75 179.438 321.75 179.438 321 177C320.67 178.98 320.34 180.96 320 183C319.01 183 318.02 183 317 183C317 177.72 317 172.44 317 167Z" fill="#AC7222"/>
<path d="M363 167C369.128 168.226 369.482 169.276 373 174C373.33 171.69 373.66 169.38 374 167C375.32 167 376.64 167 378 167C378 172.28 378 177.56 378 183C373 182 373 182 371.418 180.371C371.012 179.733 370.606 179.095 370.188 178.438C369.769 177.797 369.35 177.156 368.918 176.496C368.615 176.002 368.312 175.509 368 175C367.67 177.64 367.34 180.28 367 183C365.68 183 364.36 183 363 183C363 177.72 363 172.44 363 167Z" fill="#AC7222"/>
<path d="M281.027 166.516C284.51 167.371 286 169.125 287.999 172C288.718 175.833 288.325 177.437 286.374 180.812C283.467 183.49 281.935 184 277.999 184C275.121 182.626 273.25 181.25 270.999 179C270.548 175.013 270.664 172.657 272.499 169.062C275.36 166.702 277.323 166.266 281.027 166.516ZM274.999 172C273.995 173.852 273.995 173.852 273.999 176C275.351 178.247 275.351 178.247 276.999 180C280.818 179.724 280.818 179.724 283.999 178C284.303 175.113 284.418 173.578 282.687 171.187C279.525 168.963 278.055 169.963 274.999 172Z" fill="#AC7222"/>
<path d="M172 167C180 167 180 167 183 168.5C185.433 171.541 185.691 173.282 185.406 177.094C185 179 185 179 183.562 181.5C179.662 183.783 176.475 183.263 172 183C172 177.72 172 172.44 172 167ZM175 170C175 173.3 175 176.6 175 180C177.452 179.894 177.452 179.894 180 179C181.375 176.524 181.375 176.524 182 174C180.188 171.938 180.188 171.938 178 170C177.01 170 176.02 170 175 170Z" fill="#AC7222"/>
<path d="M344 167C347.3 167 350.6 167 354 167C354 167.99 354 168.98 354 170C352.02 170 350.04 170 348 170C348 170.99 348 171.98 348 173C349.65 173 351.3 173 353 173C353 174.32 353 175.64 353 177C351.35 177 349.7 177 348 177C348 177.99 348 178.98 348 180C349.98 180 351.96 180 354 180C354 180.99 354 181.98 354 183C350.7 183 347.4 183 344 183C344 177.72 344 172.44 344 167Z" fill="#AC7222"/>
<path d="M235 167C238.3 167 241.6 167 245 167C245 167.99 245 168.98 245 170C243.02 170 241.04 170 239 170C239 170.99 239 171.98 239 173C240.65 173 242.3 173 244 173C244 174.32 244 175.64 244 177C242.35 177 240.7 177 239 177C239 177.99 239 178.98 239 180C240.98 180 242.96 180 245 180C245 180.99 245 181.98 245 183C241.7 183 238.4 183 235 183C235 177.72 235 172.44 235 167Z" fill="#AC7222"/>
<path d="M297 167C305.371 166.515 305.371 166.515 308.188 168.688C309 171 309 171 308.25 173.688C307 176 307 176 306 177C304.334 177.041 302.666 177.043 301 177C301 178.98 301 180.96 301 183C299.68 183 298.36 183 297 183C297 177.72 297 172.44 297 167ZM301 170C301 171.32 301 172.64 301 174C302.32 173.67 303.64 173.34 305 173C304.67 172.01 304.34 171.02 304 170C303.01 170 302.02 170 301 170Z" fill="#AC7222"/>
<path d="M212 167C213.32 167 214.64 167 216 167C216.99 169.64 217.98 172.28 219 175C220.777 172.334 221.875 169.972 223 167C224.32 167 225.64 167 227 167C225.411 172.361 223.81 177.708 222 183C220.35 183 218.7 183 217 183C216.163 180.71 215.33 178.418 214.5 176.125C214.142 175.149 214.142 175.149 213.777 174.152C212 169.227 212 169.227 212 167Z" fill="#AC7222"/>
<path d="M195 167C197.97 167 200.94 167 204 167C204 167.99 204 168.98 204 170C202.02 170 200.04 170 198 170C198 170.99 198 171.98 198 173C199.98 173 201.96 173 204 173C204 174.32 204 175.64 204 177C202.02 177 200.04 177 198 177C198 177.99 198 178.98 198 180C199.98 180 201.96 180 204 180C204 180.99 204 181.98 204 183C201.03 183 198.06 183 195 183C195 177.72 195 172.44 195 167Z" fill="#AC7222"/>
<path d="M386 167C389.96 167 393.92 167 398 167C398 167.99 398 168.98 398 170C396.68 170 395.36 170 394 170C394 174.29 394 178.58 394 183C392.68 183 391.36 183 390 183C390 178.71 390 174.42 390 170C388.68 170 387.36 170 386 170C386 169.01 386 168.02 386 167Z" fill="#AC7222"/>
<path d="M254 167C255.32 167 256.64 167 258 167C258 171.29 258 175.58 258 180C259.65 180 261.3 180 263 180C263 180.99 263 181.98 263 183C260.03 183 257.06 183 254 183C254 177.72 254 172.44 254 167Z" fill="#AC7222"/>
</svg>
